<?xml version="1.0" encoding="UTF-8" standalone="no"?><svg xmlns="http://www.w3.org/2000/svg" xmlns:xlink="http://www.w3.org/1999/xlink" contentScriptType="application/ecmascript" contentStyleType="text/css" height="287px" preserveAspectRatio="none" style="width:451px;height:287px;" version="1.1" viewBox="0 0 451 287" width="451px" zoomAndPan="magnify"><defs><filter height="300%" id="fkuw8qa32jzvh" width="300%" x="-1" y="-1"><feGaussianBlur result="blurOut" stdDeviation="2.0"/><feColorMatrix in="blurOut" result="blurOut2" type="matrix" values="0 0 0 0 0 0 0 0 0 0 0 0 0 0 0 0 0 0 .4 0"/><feOffset dx="4.0" dy="4.0" in="blurOut2" result="blurOut3"/><feBlend in="SourceGraphic" in2="blurOut3" mode="normal"/></filter></defs><g><line style="stroke: #A80036; stroke-width: 1.0; stroke-dasharray: 5.0,5.0;" x1="31" x2="31" y1="51.2969" y2="233.1563"/><line style="stroke: #A80036; stroke-width: 1.0; stroke-dasharray: 5.0,5.0;" x1="91" x2="91" y1="51.2969" y2="233.1563"/><line style="stroke: #A80036; stroke-width: 1.0; stroke-dasharray: 5.0,5.0;" x1="172.5" x2="172.5" y1="123.0781" y2="233.1563"/><line style="stroke: #A80036; stroke-width: 1.0; stroke-dasharray: 5.0,5.0;" x1="237.5" x2="237.5" y1="174.875" y2="233.1563"/><rect fill="#FEFECE" filter="url(#fkuw8qa32jzvh)" height="30.2969" style="stroke: #A80036; stroke-width: 1.5;" width="43" x="8" y="16"/><text fill="#000000" font-family="sans-serif" font-size="14" lengthAdjust="spacingAndGlyphs" textLength="29" x="15" y="35.9951">Bob</text><rect fill="#FEFECE" filter="url(#fkuw8qa32jzvh)" height="30.2969" style="stroke: #A80036; stroke-width: 1.5;" width="43" x="8" y="232.1563"/><text fill="#000000" font-family="sans-serif" font-size="14" lengthAdjust="spacingAndGlyphs" textLength="29" x="15" y="252.1514">Bob</text><rect fill="#FEFECE" filter="url(#fkuw8qa32jzvh)" height="30.2969" style="stroke: #A80036; stroke-width: 1.5;" width="49" x="65" y="16"/><text fill="#000000" font-family="sans-serif" font-size="14" lengthAdjust="spacingAndGlyphs" textLength="35" x="72" y="35.9951">Alice</text><rect fill="#FEFECE" filter="url(#fkuw8qa32jzvh)" height="30.2969" style="stroke: #A80036; stroke-width: 1.5;" width="49" x="65" y="232.1563"/><text fill="#000000" font-family="sans-serif" font-size="14" lengthAdjust="spacingAndGlyphs" textLength="35" x="72" y="252.1514">Alice</text><rect fill="#FEFECE" filter="url(#fkuw8qa32jzvh)" height="30.2969" style="stroke: #A80036; stroke-width: 1.5;" width="56" x="142.5" y="232.1563"/><text fill="#000000" font-family="sans-serif" font-size="14" lengthAdjust="spacingAndGlyphs" textLength="42" x="149.5" y="252.1514">Other</text><text fill="#000000" font-family="sans-serif" font-size="14" lengthAdjust="spacingAndGlyphs" textLength="44" x="212.5" y="245.1514">String</text><ellipse cx="237.5" cy="264.4531" fill="#FEFECE" filter="url(#fkuw8qa32jzvh)" rx="12" ry="12" style="stroke: #A80036; stroke-width: 2.0;"/><polygon fill="#A80036" points="233.5,252.4531,239.5,247.4531,237.5,252.4531,239.5,257.4531,233.5,252.4531" style="stroke: #A80036; stroke-width: 1.0;"/><polygon fill="#A80036" points="79.5,78.4297,89.5,82.4297,79.5,86.4297,83.5,82.4297" style="stroke: #A80036; stroke-width: 1.0;"/><line style="stroke: #A80036; stroke-width: 1.0;" x1="31.5" x2="85.5" y1="82.4297" y2="82.4297"/><text fill="#000000" font-family="sans-serif" font-size="13" lengthAdjust="spacingAndGlyphs" textLength="30" x="38.5" y="77.3638">hello</text><polygon fill="#A80036" points="130.5,107.5625,140.5,111.5625,130.5,115.5625,134.5,111.5625" style="stroke: #A80036; stroke-width: 1.0;"/><line style="stroke: #A80036; stroke-width: 1.0;" x1="91.5" x2="136.5" y1="111.5625" y2="111.5625"/><text fill="#000000" font-family="sans-serif" font-size="13" lengthAdjust="spacingAndGlyphs" textLength="27" x="98.5" y="106.4966">new</text><rect fill="#FEFECE" filter="url(#fkuw8qa32jzvh)" height="30.2969" style="stroke: #A80036; stroke-width: 1.5;" width="56" x="142.5" y="90.4297"/><text fill="#000000" font-family="sans-serif" font-size="14" lengthAdjust="spacingAndGlyphs" textLength="42" x="149.5" y="110.4248">Other</text><polygon fill="#A80036" points="200.5,137.7266,210.5,141.7266,200.5,145.7266,204.5,141.7266" style="stroke: #A80036; stroke-width: 1.0;"/><line style="stroke: #A80036; stroke-width: 1.0;" x1="91.5" x2="206.5" y1="141.7266" y2="141.7266"/><text fill="#000000" font-family="sans-serif" font-size="14" lengthAdjust="spacingAndGlyphs" textLength="44" x="212.5" y="180.7217">String</text><ellipse cx="237.5" cy="151.7266" fill="#FEFECE" filter="url(#fkuw8qa32jzvh)" rx="12" ry="12" style="stroke: #A80036; stroke-width: 2.0;"/><polygon fill="#A80036" points="233.5,139.7266,239.5,134.7266,237.5,139.7266,239.5,144.7266,233.5,139.7266" style="stroke: #A80036; stroke-width: 1.0;"/><path d="M267,150.3086 L267,175.3086 L439,175.3086 L439,160.3086 L429,150.3086 L267,150.3086 " fill="#FBFB77" filter="url(#fkuw8qa32jzvh)" style="stroke: #A80036; stroke-width: 1.0;"/><path d="M429,150.3086 L429,160.3086 L439,160.3086 L429,150.3086 " fill="#FBFB77" style="stroke: #A80036; stroke-width: 1.0;"/><text fill="#000000" font-family="sans-serif" font-size="13" lengthAdjust="spacingAndGlyphs" textLength="151" x="273" y="167.3755">You can also put notes!</text><polygon fill="#A80036" points="42.5,211.1563,32.5,215.1563,42.5,219.1563,38.5,215.1563" style="stroke: #A80036; stroke-width: 1.0;"/><line style="stroke: #A80036; stroke-width: 1.0; stroke-dasharray: 2.0,2.0;" x1="36.5" x2="90.5" y1="215.1563" y2="215.1563"/><text fill="#000000" font-family="sans-serif" font-size="13" lengthAdjust="spacingAndGlyphs" textLength="15" x="48.5" y="210.0903">ok</text><!--MD5=[10f8e9facfa629da34d9e8e422255d2a]
@startuml
Bob -> Alice : hello

create Other
Alice -> Other : new

create control String
Alice -> String
note right : You can also put notes!

Alice - -> Bob : ok
@enduml

PlantUML version 1.2020.09(Sun May 10 10:51:06 UTC 2020)
(GPL source distribution)
Java Runtime: Java(TM) SE Runtime Environment
JVM: Java HotSpot(TM) 64-Bit Server VM
Java Version: 14.0.1+7
Operating System: Linux
Default Encoding: UTF-8
Language: en
Country: US
--></g></svg>
